<svg width="20" height="20" viewBox="0 0 20 20" fill="none" xmlns="http://www.w3.org/2000/svg">
<path d="M2.35714 18.7H7.36771V12.1001C7.36771 11.8028 7.47312 11.5537 7.68393 11.3526C7.89383 11.1507 8.15395 11.0497 8.46429 11.0497H12.5357C12.846 11.0497 13.1066 11.1507 13.3174 11.3526C13.5273 11.5537 13.6323 11.8028 13.6323 12.1001V18.7H18.6429V7.40071C18.6429 7.26725 18.6125 7.14592 18.5519 7.03672C18.4913 6.92753 18.4085 6.8322 18.3036 6.75073L10.9967 1.47546C10.8574 1.35933 10.6918 1.30127 10.5 1.30127C10.3082 1.30127 10.1431 1.35933 10.0046 1.47546L2.69643 6.75073C2.59238 6.83393 2.5096 6.92926 2.44807 7.03672C2.38655 7.14419 2.35624 7.26552 2.35714 7.40071V18.7ZM1 18.7V7.40071C1 7.06792 1.07781 6.7529 1.23343 6.45564C1.38905 6.15838 1.60348 5.91355 1.87671 5.72116L9.18493 0.41989C9.56764 0.139964 10.0046 0 10.4959 0C10.9872 0 11.4269 0.139964 11.8151 0.41989L19.1233 5.71986C19.3974 5.91225 19.6119 6.15751 19.7666 6.45564C19.9222 6.7529 20 7.06792 20 7.40071V18.7C20 19.0484 19.8647 19.3522 19.5942 19.6113C19.3237 19.8704 19.0066 20 18.6429 20H13.3717C13.0605 20 12.7999 19.8995 12.59 19.6984C12.3801 19.4965 12.2751 19.2469 12.2751 18.9496V12.351H8.72486V18.9496C8.72486 19.2477 8.6199 19.4973 8.41 19.6984C8.2001 19.8995 7.93998 20 7.62964 20H2.35714C1.99343 20 1.67631 19.8704 1.40579 19.6113C1.13526 19.3522 1 19.0484 1 18.7Z" fill="#3F5972"/>
</svg>
