<svg width="23" height="27" viewBox="0 0 23 27" fill="none" xmlns="http://www.w3.org/2000/svg">
<path d="M18.8924 4.03818C23.0266 8.11449 23.0266 14.6382 18.9475 18.6605L11.5046 26L4.05898 18.6605C3.09066 17.712 2.32124 16.579 1.79592 15.3281C1.27061 14.0771 1 12.7336 1 11.3763C1 10.0191 1.27061 8.67552 1.79592 7.42461C2.32124 6.1737 3.09066 5.04068 4.05898 4.09213L4.1141 4.03818C6.083 2.09142 8.73721 1 11.5026 1C14.268 1 16.9235 2.09142 18.8924 4.03818ZM18.8924 4.03818C18.8373 3.98292 18.8373 3.98292 18.8924 4.03818ZM14.1255 10.2105C14.1255 10.9085 13.849 11.5778 13.3567 12.0713C12.8645 12.5649 12.1968 12.8421 11.5006 12.8421C10.8044 12.8421 10.1368 12.5649 9.64452 12.0713C9.15226 11.5778 8.8757 10.9085 8.8757 10.2105C8.8757 9.51261 9.15226 8.84326 9.64452 8.34974C10.1368 7.85622 10.8044 7.57897 11.5006 7.57897C12.1968 7.57897 12.8645 7.85622 13.3567 8.34974C13.849 8.84326 14.1255 9.51261 14.1255 10.2105Z" stroke="#EAFFFF" stroke-width="2" stroke-miterlimit="10" stroke-linecap="round" stroke-linejoin="round"/>
</svg>
