<svg width="26" height="30" viewBox="0 0 26 30" fill="none" xmlns="http://www.w3.org/2000/svg">
<path fill-rule="evenodd" clip-rule="evenodd" d="M0.286424 20.4288C-0.254781 21.3917 0.0635744 22.6534 1.01864 23.2179C1.97371 23.7823 3.15163 23.4503 3.69283 22.4542C4.23404 21.4581 3.91568 20.2295 2.96061 19.6651C2.03738 19.1338 0.827629 19.4659 0.286424 20.4288Z" fill="#EAFFFF"/>
<path fill-rule="evenodd" clip-rule="evenodd" d="M11.0469 28.9622C11.5881 29.9583 12.7979 30.2903 13.7211 29.7259C14.6762 29.1614 14.9945 27.8997 14.4533 26.9368C13.9121 25.9407 12.7024 25.6086 11.7791 26.1731C10.8241 26.7376 10.4739 27.9993 11.0469 28.9622Z" fill="#EAFFFF"/>
<path fill-rule="evenodd" clip-rule="evenodd" d="M23.4946 23.5168C24.577 23.5168 25.4684 22.5871 25.4684 21.4582C25.4684 20.3292 24.577 19.3995 23.4946 19.3995C22.4122 19.3995 21.5208 20.3292 21.5208 21.4582C21.5208 22.5871 22.3804 23.5168 23.4946 23.5168Z" fill="#EAFFFF"/>
<path fill-rule="evenodd" clip-rule="evenodd" d="M25.1819 9.53818C25.7231 8.54208 25.4048 7.31355 24.4497 6.74909C23.4946 6.18463 22.3167 6.51666 21.7755 7.51277C21.2343 8.47567 21.5526 9.7374 22.5077 10.3019C23.4309 10.8663 24.6407 10.5343 25.1819 9.53818Z" fill="#EAFFFF"/>
<path fill-rule="evenodd" clip-rule="evenodd" d="M14.4532 1.03797C13.912 0.0418615 12.7023 -0.290174 11.779 0.274286C10.824 0.838746 10.5056 2.10048 11.0468 3.06338C11.588 4.05949 12.7978 4.39152 13.721 3.82706C14.6442 3.2626 14.9944 2.00087 14.4532 1.03797Z" fill="#EAFFFF"/>
<path fill-rule="evenodd" clip-rule="evenodd" d="M1.97381 6.48347C0.891396 6.48347 0 7.41317 0 8.54209C0 9.67101 0.891396 10.6007 1.97381 10.6007C3.05622 10.6007 3.94761 9.67101 3.94761 8.54209C3.94761 7.41317 3.08805 6.48347 1.97381 6.48347Z" fill="#EAFFFF"/>
<path fill-rule="evenodd" clip-rule="evenodd" d="M12.7341 13.4563C13.7529 13.4563 14.6124 14.3196 14.6124 15.4153C14.6124 16.4778 13.7847 17.3743 12.7341 17.3743C11.7154 17.3743 10.8558 16.511 10.8558 15.4153C10.8558 14.3196 11.7154 13.4563 12.7341 13.4563Z" fill="#EAFFFF"/>
<path fill-rule="evenodd" clip-rule="evenodd" d="M12.7342 19.6654C11.7154 19.6654 10.824 19.2669 10.06 18.6029C9.13675 17.8392 8.40453 16.7435 7.86333 15.6478L7.83149 15.5814C7.79966 15.5149 7.79966 15.4153 7.83149 15.3157L7.86333 15.2493C8.40453 14.1536 9.13675 13.0579 10.06 12.2942C10.824 11.6301 11.7473 11.2317 12.7342 11.2317C13.7529 11.2317 14.6443 11.6301 15.4084 12.2942C16.3316 13.0579 17.0638 14.1536 17.605 15.2493L17.6369 15.3157C17.6687 15.3821 17.6687 15.4817 17.6369 15.5814L17.605 15.6478C17.0638 16.7435 16.3316 17.8392 15.4084 18.6029C14.6443 19.2669 13.7529 19.6654 12.7342 19.6654ZM16.7455 15.4485C16.2679 14.552 15.6312 13.6223 14.8672 12.9583C14.2623 12.427 13.5301 12.095 12.7342 12.095C11.9383 12.095 11.2061 12.427 10.6012 12.9583C9.83713 13.6223 9.20043 14.5188 8.72289 15.4485C9.20043 16.345 9.83713 17.2747 10.6012 17.9388C11.2061 18.4701 11.9383 18.8021 12.7342 18.8021C13.5301 18.8021 14.2623 18.4701 14.8672 17.9388C15.663 17.2747 16.2679 16.345 16.7455 15.4485Z" fill="#EAFFFF"/>
<path fill-rule="evenodd" clip-rule="evenodd" d="M8.85021 8.4755L12.2566 2.33284C12.3521 2.13362 12.5431 2.03401 12.7342 2.03401C12.9252 2.03401 13.1162 2.13362 13.2117 2.33284L16.6181 8.4755H23.3036C23.4946 8.4755 23.6856 8.57511 23.7811 8.77433C23.8766 8.97355 23.8766 9.17277 23.7811 9.37199L20.4384 15.415L23.7811 21.4581C23.8766 21.6573 23.8766 21.8565 23.7811 22.0557C23.6856 22.255 23.4946 22.3546 23.3036 22.3546H16.6181L13.2117 28.4972C13.1162 28.6964 12.9252 28.7961 12.7342 28.7961C12.5431 28.7961 12.3521 28.6964 12.2566 28.4972L8.85021 22.3546H2.16474C1.97373 22.3546 1.78271 22.255 1.68721 22.0557C1.5917 21.8565 1.5917 21.6573 1.68721 21.4581L5.02994 15.415L1.65537 9.37199C1.55986 9.17277 1.55986 8.97355 1.65537 8.77433C1.75088 8.57511 1.94189 8.4755 2.1329 8.4755H8.85021ZM9.80528 8.4755H15.663L12.7342 3.19614L9.80528 8.4755ZM19.9927 16.2783L17.1275 21.4913H22.8897L19.9927 16.2783ZM8.37268 21.4913L5.50748 16.2783L2.64227 21.4913H8.37268ZM5.47564 14.5517L8.34085 9.33879H2.61044L5.47564 14.5517ZM5.98501 15.415L9.35959 21.4913H16.1724L19.547 15.415L16.1406 9.33879H9.32775L5.98501 15.415ZM9.80528 22.3546L12.7342 27.6339L15.663 22.3546H9.80528ZM19.9927 14.5517L22.8579 9.33879H17.0956L19.9927 14.5517Z" fill="#EAFFFF"/>
<path fill-rule="evenodd" clip-rule="evenodd" d="M12.7342 2.0674L18.2736 5.42096L23.8129 8.77452V15.4484V22.1223L18.2736 25.4427L12.7342 28.7962L7.19477 25.4427L1.65538 22.0891V15.4152V8.74132L7.19477 5.38776L12.7342 2.0674ZM12.7342 1.17091L0.923157 8.30967V22.5208L12.7342 29.6263L24.5452 22.5208V8.30967L12.7342 1.17091Z" fill="#EAFFFF"/>
</svg>
