<svg width="20" height="20" viewBox="0 0 20 20" fill="none" xmlns="http://www.w3.org/2000/svg">
<path d="M17.4481 14.4322C16.9457 11.4333 15.5098 8.66933 13.345 6.53401C12.8711 6.07291 12.6346 5.84282 12.1111 5.63015C11.5877 5.41656 11.1376 5.41656 10.2384 5.41656H8.26198C7.36271 5.41656 6.91261 5.41656 6.38919 5.63015C5.86667 5.84282 5.62834 6.07291 5.15533 6.53401C2.99053 8.66933 1.55467 11.4333 1.05223 14.4322C0.605807 17.1254 3.09003 19.1669 5.86576 19.1669H12.6346C15.4112 19.1669 17.8964 17.1254 17.4472 14.4322" stroke="#3F5972" stroke-width="1.25" stroke-linecap="round" stroke-linejoin="round"/>
<path d="M4.90229 3.0726C4.71254 2.79759 4.43845 2.42358 5.00496 2.33925C5.58706 2.25124 6.19115 2.64909 6.78333 2.64175C7.31776 2.6335 7.59002 2.39608 7.88336 2.05691C8.19136 1.70032 8.66804 0.83313 9.25014 0.83313C9.83223 0.83313 10.3089 1.70032 10.6169 2.05691C10.9103 2.39608 11.1825 2.63442 11.7169 2.64084C12.3091 2.65 12.9132 2.25124 13.4953 2.33833C14.0618 2.42358 13.7877 2.79667 13.598 3.07168L12.7436 4.31746C12.377 4.84913 12.1945 5.11497 11.8114 5.26623C11.4282 5.41748 10.9341 5.41656 9.94499 5.41656H8.55529C7.56527 5.41656 7.07117 5.41656 6.68891 5.26623C6.30665 5.11589 6.12332 4.84822 5.75664 4.31654L4.90229 3.0726Z" stroke="#3F5972" stroke-width="1.25" stroke-linejoin="round"/>
<path d="M10.7416 10.8424C10.5436 10.11 9.53434 9.44994 8.32339 9.94403C7.11245 10.4381 6.92086 12.0267 8.75149 12.1963C9.58017 12.2724 10.1192 12.1074 10.6133 12.574C11.1083 13.0397 11.2 14.3368 9.93585 14.6861C8.67357 15.0353 7.42229 14.4899 7.28662 13.7144M9.10533 9.07593V9.77353M9.10533 14.7933V15.4937" stroke="#3F5972" stroke-width="1.25" stroke-linecap="round" stroke-linejoin="round"/>
</svg>
