<svg width="28" height="20" viewBox="0 0 28 20" fill="none" xmlns="http://www.w3.org/2000/svg">
<path d="M5.41176 4.81481C5.41176 3.93076 5.76037 3.08291 6.3809 2.45779C7.00142 1.83267 7.84303 1.48148 8.72059 1.48148C9.59814 1.48148 10.4398 1.83267 11.0603 2.45779C11.6808 3.08291 12.0294 3.93076 12.0294 4.81481C12.0294 5.69887 11.6808 6.54672 11.0603 7.17184C10.4398 7.79696 9.59814 8.14815 8.72059 8.14815C7.84303 8.14815 7.00142 7.79696 6.3809 7.17184C5.76037 6.54672 5.41176 5.69887 5.41176 4.81481ZM8.72059 0C7.45301 0 6.23735 0.507273 5.34103 1.41023C4.44472 2.31318 3.94118 3.53785 3.94118 4.81481C3.94118 6.09178 4.44472 7.31645 5.34103 8.2194C6.23735 9.12236 7.45301 9.62963 8.72059 9.62963C9.98817 9.62963 11.2038 9.12236 12.1001 8.2194C12.9965 7.31645 13.5 6.09178 13.5 4.81481C13.5 3.53785 12.9965 2.31318 12.1001 1.41023C11.2038 0.507273 9.98817 0 8.72059 0ZM17.0838 17.2519C17.875 17.5778 18.8706 17.7778 20.1176 17.7778C22.8838 17.7778 24.4132 16.7881 25.2191 15.6533C25.6405 15.0583 25.9042 14.3648 25.9853 13.6385C25.9925 13.5711 25.9974 13.5034 26 13.4356V13.3333C26 13.0415 25.9429 12.7525 25.8321 12.4829C25.7212 12.2133 25.5587 11.9683 25.3539 11.762C25.1491 11.5556 24.9059 11.3919 24.6383 11.2803C24.3706 11.1686 24.0838 11.1111 23.7941 11.1111H16.9853C17.3382 11.5407 17.6029 12.043 17.7574 12.5926H23.7941C23.9891 12.5926 24.1762 12.6706 24.314 12.8095C24.4519 12.9485 24.5294 13.1369 24.5294 13.3333V13.4133L24.5221 13.4874C24.4668 13.9574 24.2949 14.4058 24.0221 14.7911C23.5412 15.4711 22.4971 16.2963 20.1176 16.2963C19.0412 16.2963 18.2382 16.1274 17.6368 15.88C17.5162 16.2948 17.3412 16.763 17.0838 17.2519ZM1 14.0741C1 13.2882 1.30987 12.5346 1.86145 11.9789C2.41303 11.4233 3.16113 11.1111 3.94118 11.1111H13.5C14.28 11.1111 15.0281 11.4233 15.5797 11.9789C16.1313 12.5346 16.4412 13.2882 16.4412 14.0741V14.1985L16.4382 14.2578L16.4235 14.4578C16.3193 15.4179 15.9808 16.3371 15.4382 17.1333C14.4074 18.637 12.4162 20 8.72059 20C5.025 20 3.03382 18.637 2.00294 17.1348C1.46014 16.3381 1.12164 15.4184 1.01765 14.4578C1.00926 14.3715 1.00337 14.2851 1 14.1985V14.0741ZM2.47059 14.163V14.1896L2.48088 14.3126C2.56068 15.0227 2.81215 15.7023 3.21324 16.2919C3.92941 17.3348 5.43088 18.5185 8.72059 18.5185C12.0103 18.5185 13.5118 17.3348 14.2279 16.2919C14.629 15.7023 14.8805 15.0227 14.9603 14.3126C14.9662 14.2563 14.9691 14.2153 14.9691 14.1896L14.9706 14.1644V14.0741C14.9706 13.6812 14.8157 13.3043 14.5399 13.0265C14.2641 12.7487 13.89 12.5926 13.5 12.5926H3.94118C3.55115 12.5926 3.1771 12.7487 2.90131 13.0265C2.62552 13.3043 2.47059 13.6812 2.47059 14.0741V14.163ZM17.9118 5.92593C17.9118 5.33656 18.1442 4.77132 18.5579 4.35458C18.9715 3.93783 19.5326 3.7037 20.1176 3.7037C20.7027 3.7037 21.2638 3.93783 21.6774 4.35458C22.0911 4.77132 22.3235 5.33656 22.3235 5.92593C22.3235 6.5153 22.0911 7.08053 21.6774 7.49727C21.2638 7.91402 20.7027 8.14815 20.1176 8.14815C19.5326 8.14815 18.9715 7.91402 18.5579 7.49727C18.1442 7.08053 17.9118 6.5153 17.9118 5.92593ZM20.1176 2.22222C19.1426 2.22222 18.2075 2.61243 17.518 3.30701C16.8285 4.00159 16.4412 4.94364 16.4412 5.92593C16.4412 6.90821 16.8285 7.85026 17.518 8.54484C18.2075 9.23942 19.1426 9.62963 20.1176 9.62963C21.0927 9.62963 22.0278 9.23942 22.7173 8.54484C23.4068 7.85026 23.7941 6.90821 23.7941 5.92593C23.7941 4.94364 23.4068 4.00159 22.7173 3.30701C22.0278 2.61243 21.0927 2.22222 20.1176 2.22222Z" fill="#3F5972"/>
</svg>
