<svg width="22" height="22" viewBox="0 0 22 22" fill="none" xmlns="http://www.w3.org/2000/svg">
<path d="M19.459 13.9326V20H13.3916V13.9326H19.459ZM7.56738 13.9326V20H1.5V13.9326H7.56738ZM16.4258 1.5C17.3737 1.50003 18.2828 1.87658 18.9531 2.54688C19.6234 3.21717 20 4.12629 20 5.07422C20 6.02214 19.6234 6.93126 18.9531 7.60156C18.2828 8.27185 17.3737 8.64841 16.4258 8.64844C15.4778 8.64844 14.5688 8.27188 13.8984 7.60156C13.2281 6.93125 12.8516 6.02219 12.8516 5.07422C12.8516 4.12629 13.2281 3.21717 13.8984 2.54688C14.5687 1.87663 15.4779 1.5 16.4258 1.5ZM7.56738 2.04102V8.1084H1.5V2.04102H7.56738Z" stroke="#EAFFFF" stroke-width="1.5"/>
<path d="M0.75 1.29054H8.31757V8.85811H0.75V1.29054ZM12.6419 13.1824H20.2095V20.75H12.6419V13.1824ZM0.75 13.1824H8.31757V20.75H0.75V13.1824ZM20.75 5.07432C20.75 6.22121 20.2944 7.32112 19.4834 8.13208C18.6725 8.94305 17.5726 9.39865 16.4257 9.39865C15.2788 9.39865 14.1789 8.94305 13.3679 8.13208C12.5569 7.32112 12.1014 6.22121 12.1014 5.07432C12.1014 3.92744 12.5569 2.82753 13.3679 2.01657C14.1789 1.2056 15.2788 0.75 16.4257 0.75C17.5726 0.75 18.6725 1.2056 19.4834 2.01657C20.2944 2.82753 20.75 3.92744 20.75 5.07432Z" stroke="#EAFFFF" stroke-width="1.5"/>
</svg>
