<svg width="22" height="22" viewBox="0 0 22 22" fill="none" xmlns="http://www.w3.org/2000/svg">
<path d="M19.0891 11.5446L20.4798 12.783C20.7367 12.9973 20.9083 13.2965 20.9636 13.6264C21.0189 13.9563 20.9542 14.2951 20.7814 14.5814L19.1045 17.4459C18.9744 17.6652 18.7886 17.8462 18.5661 17.9705C18.3409 18.0951 18.088 18.1613 17.8307 18.1628C17.671 18.1638 17.5122 18.14 17.3599 18.0921L15.58 17.5044C15.2682 17.7044 14.9441 17.8834 14.6077 18.0413L14.2339 19.8459C14.1647 20.1778 13.9799 20.4744 13.7124 20.6828C13.4415 20.8948 13.1056 21.0068 12.7616 20.9997H9.28942C8.94545 21.0068 8.60959 20.8948 8.33868 20.6828C8.07174 20.4742 7.88748 20.1776 7.8187 19.8459L7.44333 18.0413C7.11134 17.8812 6.78923 17.7014 6.47874 17.5029L4.69265 18.0921C4.54035 18.14 4.38153 18.1638 4.22189 18.1628C3.96507 18.161 3.71279 18.0949 3.48807 17.9705C3.26568 17.8466 3.07994 17.6662 2.94963 17.4475L1.21276 14.5814C1.03219 14.2925 0.963198 13.9476 1.01871 13.6114C1.07422 13.2753 1.25042 12.9709 1.51429 12.7553L2.90347 11V10.4554L1.51275 9.21698C1.25593 9.00267 1.08433 8.70349 1.02902 8.3736C0.973713 8.04372 1.03835 7.70493 1.21122 7.41858L2.94809 4.55405C3.07818 4.33478 3.26394 4.1538 3.48653 4.02945C3.71125 3.9051 3.96353 3.83899 4.22035 3.83715C4.37855 3.82717 4.53735 3.8417 4.69111 3.88023L6.44182 4.49559C6.75463 4.2956 7.07872 4.11663 7.4141 3.95869L7.78947 2.15413C7.85825 1.8224 8.04251 1.52584 8.30945 1.31723C8.58036 1.10516 8.91622 0.993201 9.26019 1.00032H12.7032C13.0471 0.993201 13.383 1.10516 13.6539 1.31723C13.9231 1.528 14.1077 1.82491 14.1739 2.15413L14.5493 3.95869C14.8826 4.11766 15.2041 4.29714 15.5138 4.49713L17.3015 3.90946C17.4999 3.84492 17.7095 3.82226 17.9171 3.84291C18.1247 3.86357 18.3258 3.92709 18.5076 4.02945C18.7307 4.1556 18.9153 4.33714 19.046 4.55251L20.7814 7.41858C20.9644 7.70506 21.0369 8.04835 20.9853 8.38436C20.9338 8.72038 20.7618 9.02617 20.5014 9.24467L19.0891 10.4477V11.5446Z" stroke="#EAFFFF" stroke-width="2"/>
<path d="M14.8461 11C14.8461 12.02 14.4409 12.9982 13.7196 13.7195C12.9984 14.4408 12.0201 14.846 11.0001 14.846C9.98005 14.846 9.0018 14.4408 8.28053 13.7195C7.55926 12.9982 7.15405 12.02 7.15405 11C7.15405 9.97993 7.55926 9.00168 8.28053 8.28041C9.0018 7.55914 9.98005 7.15393 11.0001 7.15393C12.0201 7.15393 12.9984 7.55914 13.7196 8.28041C14.4409 9.00168 14.8461 9.97993 14.8461 11Z" stroke="#EAFFFF" stroke-width="1.5"/>
</svg>
