<svg width="22" height="22" viewBox="0 0 22 22" fill="none" xmlns="http://www.w3.org/2000/svg">
<path d="M18.7778 1H3.22222C2.63285 1 2.06762 1.23413 1.65087 1.65087C1.23413 2.06762 1 2.63285 1 3.22222C1 3.81159 1.23413 4.37682 1.65087 4.79357C2.06762 5.21032 2.63285 5.44444 3.22222 5.44444H17.6667M1 5.44444V4.33333M1 5.44444H18.7778C19.3671 5.44444 19.9324 5.67857 20.3491 6.09532C20.7659 6.51207 21 7.0773 21 7.66667V18.7778C21 19.3671 20.7659 19.9324 20.3491 20.3491C19.9324 20.7659 19.3671 21 18.7778 21H1V5.44444ZM15.4444 13.2222H16.5556" stroke="#EAFFFF" stroke-width="2" stroke-linecap="square"/>
</svg>
